<svg t="1749820439532" class="icon" viewBox="0 0 1024 1024" version="1.1" xmlns="http://www.w3.org/2000/svg" p-id="5089" width="16" height="16"><path d="M194.412 0h48.762v48.762h-48.762z m0 48.762h48.762v48.762h-48.762z m0 48.762h48.762v48.762h-48.762z" fill="#3A2802" p-id="5090"></path><path d="M194.412 146.286h48.762v48.762h-48.762z" fill="#FFFF41" p-id="5091"></path><path d="M194.412 195.046h48.762v48.762h-48.762z" fill="#FFFF41" p-id="5092"></path><path d="M194.412 243.808h48.762v48.762h-48.762z" fill="#3A2802" p-id="5093"></path><path d="M194.412 292.57h48.762v48.762h-48.762z" fill="#FFFF41" p-id="5094"></path><path d="M194.412 341.332h48.762v48.762h-48.762z m0 48.762h48.762v48.762h-48.762z m0 48.762h48.762v48.762h-48.762z m0 48.762h48.762v48.762h-48.762z" fill="#FF6800" p-id="5095"></path><path d="M194.412 536.382h48.762v48.762h-48.762z m0 48.762h48.762v48.762h-48.762z" fill="#3A2802" p-id="5096"></path><path d="M194.412 633.906h48.762v48.762h-48.762z m0 48.762h48.762v48.762h-48.762z" fill="#FF41C8" p-id="5097"></path><path d="M194.412 731.43h48.762v48.762h-48.762z" fill="#A300F1" p-id="5098"></path><path d="M194.412 780.192h48.762v48.762h-48.762z m0 48.762h48.762v48.762h-48.762z" fill="#1D4AD8" p-id="5099"></path><path d="M194.412 877.714h48.762v48.762h-48.762z" fill="#1D4AD8" p-id="5100"></path><path d="M194.412 926.476h48.762v48.762h-48.762zM243.165 0h48.762v48.762h-48.762z m0 48.762h48.762v48.762h-48.762z" fill="#3A2802" p-id="5101"></path><path d="M243.165 97.524h48.762v48.762h-48.762z m0 48.762h48.762v48.762h-48.762z" fill="#FFFF41" p-id="5102"></path><path d="M243.165 195.046h48.762v48.762h-48.762z m0 48.762h48.762v48.762h-48.762z m0 48.762h48.762v48.762h-48.762z m0 48.762h48.762v48.762h-48.762z m0 48.762h48.762v48.762h-48.762z" fill="#FF6800" p-id="5103"></path><path d="M243.165 438.856h48.762v48.762h-48.762z m0 48.762h48.762v48.762h-48.762z m0 48.764h48.762v48.762h-48.762z" fill="#FF41C8" p-id="5104"></path><path d="M243.165 585.144h48.762v48.762h-48.762z m0 48.762h48.762v48.762h-48.762z" fill="#3A2802" p-id="5105"></path><path d="M243.165 682.668h48.762v48.762h-48.762z" fill="#FF41C8" p-id="5106"></path><path d="M243.165 731.43h48.762v48.762h-48.762z m0 48.762h48.762v48.762h-48.762z" fill="#A300F1" p-id="5107"></path><path d="M243.165 828.954h48.762v48.762h-48.762z" fill="#1D4AD8" p-id="5108"></path><path d="M243.165 877.714h48.762v48.762h-48.762z m0 48.762h48.762v48.762h-48.762zM291.93 0h48.762v48.762h-48.762z m0 48.762h48.762v48.762h-48.762z m0 48.762h48.762v48.762h-48.762z" fill="#3A2802" p-id="5109"></path><path d="M291.929 146.286h48.762v48.762h-48.762z" fill="#FFFF41" p-id="5110"></path><path d="M291.929 195.046h48.762v48.762h-48.762z m0 48.762h48.762v48.762h-48.762z m0 48.762h48.762v48.762h-48.762z" fill="#FFFF41" p-id="5111"></path><path d="M291.929 341.332h48.762v48.762h-48.762z m0 48.762h48.762v48.762h-48.762z m0 48.762h48.762v48.762h-48.762z" fill="#FF6800" p-id="5112"></path><path d="M291.929 487.618h48.762v48.762h-48.762z m0 48.764h48.762v48.762h-48.762z m0 48.762h48.762v48.762h-48.762z" fill="#FF41C8" p-id="5113"></path><path d="M291.929 633.906h48.762v48.762h-48.762z m0 48.762h48.762v48.762h-48.762z" fill="#3A2802" p-id="5114"></path><path d="M291.929 731.43h48.762v48.762h-48.762z" fill="#FF41C8" p-id="5115"></path><path d="M291.929 780.192h48.762v48.762h-48.762z" fill="#A300F1" p-id="5116"></path><path d="M291.929 828.954h48.762v48.762h-48.762z" fill="#3A2802" p-id="5117"></path><path d="M291.929 877.714h48.762v48.762h-48.762z m0 48.762h48.762v48.762h-48.762z m48.765-877.714h48.762v48.762h-48.762z m0 48.762h48.762v48.762h-48.762z m0 48.762h48.762v48.762h-48.762z" fill="#3A2802" p-id="5118"></path><path d="M340.694 195.046h48.762v48.762h-48.762z m0 48.762h48.762v48.762h-48.762z m0 48.762h48.762v48.762h-48.762z" fill="#3A2802" p-id="5119"></path><path d="M388.058 292.57h48.762v48.762h-48.762z m0 48.762h48.762v48.762h-48.762z m0 48.762h48.762v48.762h-48.762z" fill="#3A2802" p-id="5120"></path><path d="M388.058 438.856h48.762v48.762h-48.762z" fill="#FFFF41" p-id="5121"></path><path d="M388.058 487.618h48.762v48.762h-48.762z m0 48.764h48.762v48.762h-48.762z" fill="#FF6800" p-id="5122"></path><path d="M388.058 585.144h48.762v48.762h-48.762z m0 48.762h48.762v48.762h-48.762z" fill="#FF41C8" p-id="5123"></path><path d="M388.058 682.668h48.762v48.762h-48.762z" fill="#3A2802" p-id="5124"></path><path d="M388.058 731.43h48.762v48.762h-48.762z m0 48.762h48.762v48.762h-48.762z m0 97.522h48.762v48.762h-48.762z m0 48.762h48.762v48.762h-48.762z m48.765-585.144h48.762v48.762h-48.762z m0 48.762h48.762v48.762h-48.762z m0 48.762h48.762v48.762h-48.762z m0 48.762h48.762v48.762h-48.762z m0 48.764h48.762v48.762h-48.762z m0 48.762h48.762v48.762h-48.762z m48.765 0h48.762v48.762h-48.762z m0 48.762h48.762v48.762h-48.762z m0 48.762h48.762v48.762h-48.762zM485.588 731.43h48.762v48.762h-48.762z m0 48.762h48.762v48.762h-48.762z m0 48.762h48.762v48.762h-48.762z m48.765-243.81h48.762v48.762h-48.762z m0 48.762h48.762v48.762h-48.762z" fill="#3A2802" p-id="5125"></path><path d="M583.106 633.906h48.762v48.762h-48.762z m48.765 0h48.762v48.762h-48.762z m0-48.762h48.762v48.762h-48.762z" fill="#3A2802" p-id="5126"></path><path d="M680.635 585.144h48.762v48.762h-48.762z" fill="#FF6800" p-id="5127"></path><path d="M680.635 536.382h48.762v48.762h-48.762z m0-48.764h48.762v48.762h-48.762z" fill="#3A2802" p-id="5128"></path><path d="M729.4 585.144h48.762v48.762H729.4z" fill="#FF41C8" p-id="5129"></path><path d="M729.4 536.382h48.762v48.762H729.4z" fill="#FF6800" p-id="5130"></path><path d="M729.4 487.618h48.762v48.762H729.4z" fill="#FFFF41" p-id="5131"></path><path d="M729.4 438.856h48.762v48.762H729.4z m0-48.762h48.762v48.762H729.4z" fill="#3A2802" p-id="5132"></path><path d="M778.153 585.144h48.762v48.762h-48.762z m0-48.762h48.762v48.762h-48.762z m0-48.764h48.762v48.762h-48.762z" fill="#FF6800" p-id="5133"></path><path d="M778.153 438.856h48.762v48.762h-48.762z" fill="#FFFF41" p-id="5134"></path><path d="M778.153 390.094h48.762v48.762h-48.762z m0-48.762h48.762v48.762h-48.762z" fill="#3A2802" p-id="5135"></path><path d="M826.918 585.144h48.762v48.762h-48.762z m0-48.762h48.762v48.762h-48.762z" fill="#FF6800" p-id="5136"></path><path d="M826.918 487.618h48.762v48.762h-48.762z" fill="#FFFF41" p-id="5137"></path><path d="M826.918 438.856h48.762v48.762h-48.762z" fill="#FF6800" p-id="5138"></path><path d="M826.918 390.094h48.762v48.762h-48.762z" fill="#FFFF41" p-id="5139"></path><path d="M826.918 341.332h48.762v48.762h-48.762z m0-48.762h48.762v48.762h-48.762z" fill="#3A2802" p-id="5140"></path><path d="M826.918 633.906h48.762v48.762h-48.762z" fill="#FF41C8" p-id="5141"></path><path d="M875.683 585.144h48.762v48.762h-48.762z" fill="#3A2802" p-id="5142"></path><path d="M875.683 536.382h48.762v48.762h-48.762z" fill="#FFFF41" p-id="5143"></path><path d="M924.448 536.382h48.762v48.762h-48.762z" fill="#3A2802" p-id="5144"></path><path d="M875.683 487.618h48.762v48.762h-48.762z" fill="#FF6800" p-id="5145"></path><path d="M875.683 438.856h48.762v48.762h-48.762z m0-48.762h48.762v48.762h-48.762z" fill="#FFFF41" p-id="5146"></path><path d="M875.683 341.332h48.762v48.762h-48.762z m0-48.762h48.762v48.762h-48.762z m48.765 195.048h48.762v48.762h-48.762z" fill="#3A2802" p-id="5147"></path><path d="M924.448 438.856h48.762v48.762h-48.762z" fill="#FFFF41" p-id="5148"></path><path d="M973.2 438.856h48.763v48.762H973.2z m-48.752-48.762h48.762v48.762h-48.762z" fill="#3A2802" p-id="5149"></path><path d="M973.2 390.094h48.763v48.762H973.2z m-48.752-48.762h48.762v48.762h-48.762z" fill="#3A2802" p-id="5150"></path><path d="M973.2 341.332h48.763v48.762H973.2z m-48.752-48.762h48.762v48.762h-48.762z" fill="#3A2802" p-id="5151"></path><path d="M973.2 292.57h48.763v48.762H973.2z" fill="#3A2802" p-id="5152"></path><path d="M680.635 633.906h48.762v48.762h-48.762z m48.765 0h48.762v48.762H729.4z" fill="#FF41C8" p-id="5153"></path><path d="M778.153 633.906h48.762v48.762h-48.762z m-243.8 48.762h48.762v48.762h-48.762z" fill="#3A2802" p-id="5154"></path><path d="M583.106 682.668h48.762v48.762h-48.762z m48.765 0h48.762v48.762h-48.762z m48.764 0h48.762v48.762h-48.762z m48.765 0h48.762v48.762H729.4z" fill="#3A2802" p-id="5155"></path><path d="M778.153 682.668h48.762v48.762h-48.762z m-243.8 48.762h48.762v48.762h-48.762z" fill="#3A2802" p-id="5156"></path><path d="M583.106 731.43h48.762v48.762h-48.762z" fill="#FF41C8" p-id="5157"></path><path d="M631.871 731.43h48.762v48.762h-48.762z" fill="#A300F1" p-id="5158"></path><path d="M680.635 731.43h48.762v48.762h-48.762z m48.765 0h48.762v48.762H729.4z" fill="#FF41C8" p-id="5159"></path><path d="M778.153 731.43h48.762v48.762h-48.762z m-243.8 48.762h48.762v48.762h-48.762z" fill="#3A2802" p-id="5160"></path><path d="M583.106 780.192h48.762v48.762h-48.762z m48.765 0h48.762v48.762h-48.762z m48.764 0h48.762v48.762h-48.762z" fill="#A300F1" p-id="5161"></path><path d="M729.4 780.192h48.762v48.762H729.4z" fill="#1D4AD8" p-id="5162"></path><path d="M778.153 780.192h48.762v48.762h-48.762z m-243.8 48.762h48.762v48.762h-48.762z" fill="#3A2802" p-id="5163"></path><path d="M583.106 828.954h48.762v48.762h-48.762z" fill="#1D4AD8" p-id="5164"></path><path d="M631.871 828.954h48.762v48.762h-48.762z" fill="#A300F1" p-id="5165"></path><path d="M680.635 828.954h48.762v48.762h-48.762z" fill="#1D4AD8" p-id="5166"></path><path d="M729.4 828.954h48.762v48.762H729.4z" fill="#3A2802" p-id="5167"></path><path d="M778.153 828.954h48.762v48.762h-48.762z m-243.8 48.76h48.762v48.762h-48.762z" fill="#3A2802" p-id="5168"></path><path d="M583.106 877.714h48.762v48.762h-48.762z m48.765 0h48.762v48.762h-48.762z" fill="#1D4AD8" p-id="5169"></path><path d="M680.635 877.714h48.762v48.762h-48.762z m48.765 0h48.762v48.762H729.4z m-195.047 48.762h48.762v48.762h-48.762z" fill="#3A2802" p-id="5170"></path><path d="M583.106 926.476h48.762v48.762h-48.762z m48.765 0h48.762v48.762h-48.762z m48.764 0h48.762v48.762h-48.762z m-146.282 48.762h48.762V1024h-48.762z" fill="#3A2802" p-id="5171"></path><path d="M583.106 975.238h48.762V1024h-48.762z m48.765 0h48.762V1024h-48.762z m-97.518-438.856h48.762v48.762h-48.762z" fill="#3A2802" p-id="5172"></path><path d="M583.106 536.382h48.762v48.762h-48.762z m-48.753-48.764h48.762v48.762h-48.762z" fill="#3A2802" p-id="5173"></path><path d="M583.106 487.618h48.762v48.762h-48.762zM436.823 633.906h48.762v48.762h-48.762z m0 48.762h48.762v48.762h-48.762zM436.823 731.43h48.762v48.762h-48.762z m0 48.762h48.762v48.762h-48.762z m0 48.762h48.762v48.762h-48.762z" fill="#3A2802" p-id="5174"></path><path d="M436.823 877.714h48.762v48.762h-48.762z m-48.765-633.906h48.762v48.762h-48.762z" fill="#3A2802" p-id="5175"></path><path d="M340.694 341.332h48.762v48.762h-48.762z m0 48.762h48.762v48.762h-48.762z" fill="#FFFF41" p-id="5176"></path><path d="M340.694 438.856h48.762v48.762h-48.762z m0 48.762h48.762v48.762h-48.762z" fill="#FF6800" p-id="5177"></path><path d="M340.694 536.382h48.762v48.762h-48.762z m0 48.762h48.762v48.762h-48.762z m0 48.762h48.762v48.762h-48.762z" fill="#FF41C8" p-id="5178"></path><path d="M340.694 682.668h48.762v48.762h-48.762z" fill="#3A2802" p-id="5179"></path><path d="M340.694 731.43h48.762v48.762h-48.762z" fill="#FF41C8" p-id="5180"></path><path d="M340.694 780.192h48.762v48.762h-48.762z m0 48.762h48.762v48.762h-48.762z m0 97.522h48.762v48.762h-48.762zM145.647 48.762h48.762v48.762h-48.762z m0 48.762h48.762v48.762h-48.762z m0 48.762h48.762v48.762h-48.762z" fill="#3A2802" p-id="5181"></path><path d="M145.647 195.046h48.762v48.762h-48.762z m0 48.762h48.762v48.762h-48.762z m0 48.762h48.762v48.762h-48.762z" fill="#3A2802" p-id="5182"></path><path d="M98.283 292.57h48.762v48.762H98.283z m0 48.762h48.762v48.762H98.283z m0 48.762h48.762v48.762H98.283z m0 48.762h48.762v48.762H98.283z m-48.765 0H98.28v48.762H49.518z m0 186.69H98.28v48.763H49.518z m0 97.524H98.28v48.762H49.518z m-48.765 0h48.762v48.762H0.753z m48.765 97.524H98.28v48.762H49.518z m-48.765 0h48.762v48.762H0.753z m97.53-332.976h48.762v48.762H98.283z m-48.765 0H98.28v48.762H49.518z m0 186.69H98.28v48.762H49.518z m-48.765 0h48.762v48.762H0.753z m48.765 97.524H98.28v48.762H49.518z m-48.765 0h48.762v48.762H0.753z m48.765 97.524H98.28v48.762H49.518z m48.765-332.974h48.762v48.762H98.283z m0 48.762h48.762v48.762H98.283z m0 48.762h48.762v48.762H98.283z" fill="#3A2802" p-id="5183"></path><path d="M98.283 682.668h48.762v48.762H98.283z" fill="#A300F1" p-id="5184"></path><path d="M98.283 731.43h48.762v48.762H98.283z m0 48.762h48.762v48.762H98.283z m0 48.762h48.762v48.762H98.283z" fill="#1D4AD8" p-id="5185"></path><path d="M98.283 877.714h48.762v48.762H98.283z m0 48.762h48.762v48.762H98.283z m47.364-585.144h48.762v48.762h-48.762z m0 48.762h48.762v48.762h-48.762z m0 48.762h48.762v48.762h-48.762z" fill="#3A2802" p-id="5186"></path><path d="M145.647 487.618h48.762v48.762h-48.762z" fill="#FF41C8" p-id="5187"></path><path d="M145.647 536.382h48.762v48.762h-48.762z m0 48.762h48.762v48.762h-48.762z" fill="#3A2802" p-id="5188"></path><path d="M145.647 633.906h48.762v48.762h-48.762z m0 48.762h48.762v48.762h-48.762z" fill="#FF41C8" p-id="5189"></path><path d="M145.647 731.43h48.762v48.762h-48.762z" fill="#A300F1" p-id="5190"></path><path d="M145.647 780.192h48.762v48.762h-48.762z m0 48.762h48.762v48.762h-48.762z" fill="#1D4AD8" p-id="5191"></path><path d="M145.647 877.714h48.762v48.762h-48.762z" fill="#1D4AD8" p-id="5192"></path><path d="M145.647 926.476h48.762v48.762h-48.762z" fill="#3A2802" p-id="5193"></path></svg>
