<svg t="1749820045273" class="icon" viewBox="0 0 2042 1024" version="1.1" xmlns="http://www.w3.org/2000/svg" p-id="1675" width="200" height="200"><path d="M753.479348 1020.09709c60.321116-5.361877 135.387393-34.8522 176.941939-77.747216 50.937831-52.2783 88.47097-134.046924 69.7044-257.370094-40.214077-262.731971-359.245756-509.37831-914.20002-568.358956C41.690183 112.599416 1.476106 146.111147 0.135636 190.346632c-2.680938 124.663639 32.171262 368.62904 317.69121 537.528164 14.745162 9.383285 18.766569 29.490323 8.042815 42.895016-36.192669 44.235485-84.449562 139.408801 115.280354 207.772731 152.813493 52.2783 242.624932 48.256893 312.329333 41.554547zM1281.624227 1020.09709c-60.321116-5.361877-135.387393-34.8522-176.941939-77.747216-50.937831-52.2783-88.47097-134.046924-69.7044-257.370094C1073.851496 423.588279 1394.223643 176.941939 1949.177908 117.961293c44.235485-5.361877 84.449562 29.490323 85.790031 73.725808 2.680938 124.663639-32.171262 368.62904-317.691209 537.528164-14.745162 9.383285-18.766569 29.490323-8.042816 42.895016 36.192669 44.235485 84.449562 139.408801-115.280354 207.772732-152.813493 50.937831-242.624932 46.916423-312.329333 40.214077z" fill="#7F84FE" p-id="1676"></path><path d="M955.890203 442.354848C809.779056 115.280354 386.190777 41.554546 382.169369 40.214077l6.702346-40.214077c18.766569 2.680938 449.057195 77.747216 603.211157 424.928748l-36.192669 17.4261zM1087.256188 442.354848l-36.19267-16.08563C1205.217481 79.087685 1636.848575 5.361877 1654.274675 1.340469l6.702347 40.214077c-4.021408 0-427.609687 73.725808-573.720834 400.800302z" fill="#7F84FE" p-id="1677"></path></svg>
